<svg id="Layer_1" data-name="Layer 1" xmlns="http://www.w3.org/2000/svg" viewBox="0 0 192.788 222.628"><defs><style>.cls-1{fill:#fff;}</style></defs><path class="cls-1" d="M70.14,94.66c16,11.63,31.37,23.84,40.7,42.07,11.55,22.56,7.57,44-4.26,64.86-2.93,5.18-7.49,7.78-13.19,4.2-5.21-3.26-4.74-7.69-2.07-12.82,14.86-28.52,10.26-50.29-15-71.57A193.581,193.581,0,0,0,60.6,109.49c-5.34-3.62-11.59-6.84-6.67-14.59S64.62,91.49,70.14,94.66Z" transform="translate(-0.091 -0.009)"/><path class="cls-1" d="M8.08,181.84a293.492,293.492,0,0,0,40.56,32.74,49.968,49.968,0,0,0,10.27,5.32c32.65,12.06,50-19,53.12-29.77,1.61-6.58-.61-15.1-5.1-20.1-4.11-4.58-9.4,7.37-11,12.92-5.28,17.82-25.83,36.31-62.63-1.75-4.57-4.72-9.85-8.74-14.42-13.46s-8.72-10.24-15.52-4.07c-5.6,5.09-3,9.35.34,13.43A56.591,56.591,0,0,0,8.08,181.84Z" transform="translate(-0.091 -0.009)"/><path class="cls-1" d="M133.79,59.23q-11.08,18.12-22.16,36.23c-3.14,5.11-7.3,8-13.07,4.26s-4.71-8.51-1.48-13.64c14.43-23.2,28.7-46.51,43.13-69.71,3.28-5.27,7.36-10.25,14.31-5.82,7.11,4.53,3.72,10,.43,15.27C147.94,37.01,133.94,59.33,133.79,59.23Z" transform="translate(-0.091 -0.009)"/><path class="cls-1" d="M83.63,40.58c4.79-10.87,9.55-21.75,14.4-32.6,2.5-5.59,6.16-10,12.93-7s5.82,8.43,3.2,14.21c-9.68,21.33-19.15,42.75-28.72,64.13-2.69,6-6.79,10.65-13.72,7.28-6.61-3.22-4.92-8.89-2.33-14.46C74.26,61.69,83.56,40.55,83.63,40.58Z" transform="translate(-0.091 -0.009)"/><path class="cls-1" d="M35.99,130.69c-15.62-10.33-21.19-13.33-21.44-27.5-.28-15.86,2.85-31.87,5.63-47.62.46-2.63,6.84-6.18,10.21-5.91,6,.48,7,5.74,5.91,11.37-2,10.65-4.58,21.31-5.18,32.07-.62,10.93.73,19.87,12.32,25.23a8,8,0,0,1,2.815,10.958l-.025.042C44.75,131.73,37.91,131.96,35.99,130.69Z" transform="translate(-0.091 -0.009)"/><path class="cls-1" d="M153.83,96.22c-8.64,8.13-17.36,16.18-25.89,24.42-4.77,4.6-10.14,7.57-15.34,1.91-4.7-5.12-2-10.14,2.77-14.45q26.79-24.12,53.34-48.51c4.3-3.92,8.58-6.5,13.49-1,5.38,6.06,1.35,10-3,14.06C170.74,80.53,153.88,96.27,153.83,96.22Z" transform="translate(-0.091 -0.009)"/><path class="cls-1" d="M140.14,153.83c-5.11,3.56-10,4-13.62-1.5s-1.08-10,4-13.23c16.28-10.53,32.61-21,48.84-31.57,5.22-3.41,10.86-4.06,13.19,1.93,1.22,3.15-1.15,9.61-4,12.06-7.46,6.35-16,10.7-24.2,16.21C164.16,137.55,147.97,148.38,140.14,153.83Z" transform="translate(-0.091 -0.009)"/></svg>